<?xml version="1.0" standalone="no"?> <!DOCTYPE svg PUBLIC "-//W3C//DTD SVG 1.0//EN" "http://www.w3.org/TR/2001/REC-SVG-20010904/DTD/svg10.dtd" > <svg xmlns="http://www.w3.org/2000/svg" width="100%" height="100%">
<defs >
<font id="futurastd-condensed" horiz-adv-x="307" ><font-face
    font-family="Futura Std Condensed"
    units-per-em="1000"
    panose-1="2 11 5 6 2 2 4 3 2 4"
    ascent="825"
    descent="-175"
    alphabetic="0" />
<missing-glyph horiz-adv-x="500" d="M0 0V700H500V0H0ZM250 395L420 650H80L250 395ZM280 350L450 95V605L280 350ZM80 50H420L250 305L80 50ZM50 605V95L220 350L50 605Z" />
<glyph unicode=" " glyph-name="space" horiz-adv-x="205" />
<glyph unicode="!" glyph-name="exclam" horiz-adv-x="252" d="M151 -8T126 -8T84 9T66 52T83 94T126 112T168 95T186 52T169 10ZM77 754H177V181H77V754Z" />
<glyph unicode="&quot;" glyph-name="quotedbl" horiz-adv-x="250" d="M29 528L17 754H103L91 528H29ZM160 528L148 754H234L222 528H160Z" />
<glyph unicode="#" glyph-name="numbersign" horiz-adv-x="411" d="M-12 0L68 258H-39L-22 317H86L124 441H15L32 500H141L220 754H275L197 500H285L362 754H418L340 500H451L434 441H322L284 317H396L381 258H266L187 0H132L211 258H124L43 0H-12ZM142 317H229L267
441H179L142 317Z" />
<glyph unicode="$" glyph-name="dollar" horiz-adv-x="411" d="M182 819H227V754Q345 746 373 643L296 597Q290 629 266 649T208 670Q126 670 126 572Q126 542 135 519T161 481T199 451T246 421Q325 372 353 333T382 211Q382 17 227 0V-67H182V0Q123 5 89 32T35
114L118 154Q137 84 203 84Q286 84 286 197Q286 228 279 249T258 284T225 310T183 338Q98 390 64 435T30 567Q30 644 68 695T182 754V819Z" />
<glyph unicode="%" glyph-name="percent" horiz-adv-x="553" d="M114 763T149 763T207 747T240 700T253 644T256 584T253 525T240 469T207 422T149 405T91 421T58 468T45 524T42 584T45 644T58 700T91 746ZM133 465T149 465T174 480T186 515T189 554T189 584Q190
593 189 613T186 653T175 688T149 703T124 688T112 653T109 613T109 584Q108 574 109 555T112 515T123 480ZM368 349T403 349T461 333T494 286T507 230T510 170T507 111T494 55T461 8T403 -9T345 7T312 54T299 110T296 170T299 230T312 286T345 332ZM419 289T403
289T378 274T366 240T363 200T363 171Q362 161 363 141T366 101T377 66T403 51T428 66T440 101T443 141T443 171Q444 180 443 200T440 239T429 274ZM432 754H494L120 0H58L432 754Z" />
<glyph unicode="&amp;" glyph-name="ampersand" horiz-adv-x="494" d="M204 441Q230 467 240 478T263 515T276 565Q276 591 262 608T221 625Q196 625 179 605T162 559Q162 531 176 498T204 441ZM282 128L178 302Q121 242 121 182Q121 140 145 108T206 76Q251 76
282 128ZM360 0L324 59Q275 -10 194 -10Q123 -10 74 46T25 178Q25 275 130 380Q70 471 70 557Q70 620 110 660T214 701Q278 701 318 665T358 565Q358 509 329 464T246 366L345 202L407 290L471 238L391 126L471 0H360Z" />
<glyph unicode="&apos;" glyph-name="quotesingle" horiz-adv-x="250" d="M94 528L82 754H168L156 528H94Z" />
<glyph unicode="(" glyph-name="parenleft" horiz-adv-x="276" d="M130 764L223 741Q136 513 136 338Q136 135 223 -89L130 -113Q41 106 41 332Q41 559 130 764Z" />
<glyph unicode=")" glyph-name="parenright" horiz-adv-x="276" d="M235 332Q235 106 146 -113L53 -89Q140 135 140 338Q140 513 53 741L146 764Q235 559 235 332Z" />
<glyph unicode="*" glyph-name="asterisk" horiz-adv-x="357" d="M157 754H196V621L307 691L328 657L212 591L328 527L307 493L196 560L200 431H157L161 563L52 493L29 527L142 591L29 651L48 687L161 621L157 754Z" />
<glyph unicode="+" glyph-name="plus" horiz-adv-x="500" d="M215 291V507H285V291H457V221H285V2H215V221H44V291H215Z" />
<glyph unicode="," glyph-name="comma" horiz-adv-x="205" d="M76 106L157 81L60 -184L9 -170L76 106Z" />
<glyph unicode="-" glyph-name="hyphen" horiz-adv-x="242" d="M32 297H210V221H32V297Z" />
<glyph unicode="." glyph-name="period" horiz-adv-x="205" d="M128 -8T103 -8T61 10T43 53Q43 77 60 94T103 112T145 95T163 53Q163 28 146 10Z" />
<glyph unicode="/" glyph-name="slash" horiz-adv-x="407" d="M358 830H437L52 -103H-29L358 830Z" />
<glyph unicode="0" glyph-name="zero" horiz-adv-x="411" d="M173 763T206 763T265 752T308 720T339 672T359 615T370 552T375 488T377 428T377 377Q378 355 377 327T376 267T370 203T359 140T340 82T309 35T265 3T206 -9T147 2T104 34T73 82T53 139T42 202T37
266T35 326T35 377Q34 399 35 427T36 487T42 551T53 614T72 672T103 719T147 751ZM279 308T279 377T278 491T269 582T247 650T206 673T166 651T143 582T135 491T133 377T134 263T143 172T165 104T206 81T246 103T269 172T277 263Z" />
<glyph unicode="1" glyph-name="one" horiz-adv-x="411" d="M83 754H255V0H157V667H83V754Z" />
<glyph unicode="2" glyph-name="two" horiz-adv-x="411" d="M47 509V536Q47 588 52 623T72 693T122 745T208 763Q298 763 337 716T376 577Q376 452 246 209L182 87H369V0H37L220 387Q274 509 274 583Q274 620 259 646T207 673Q176 673 162 643T149 580T149 529V509H47Z" />
<glyph unicode="3" glyph-name="three" horiz-adv-x="411" d="M182 347H153V437H165Q227 437 247 462T268 552Q268 575 267 589T261 626T243 661T210 673Q151 673 151 575V552H55V559Q55 607 60 639T80 702T126 748T207 763Q295 763 329 712T364 568Q364 535 362
513T352 463T326 417T280 390V388Q310 380 329 363T358 320T370 270T373 214Q373 -9 200 -9Q41 -9 41 166V189H137V165Q137 129 152 105T200 81Q220 81 234 91T256 115T266 151T270 187T271 222Q271 280 253 314T182 347Z" />
<glyph unicode="4" glyph-name="four" horiz-adv-x="411" d="M330 754V281H378V207H330V0H232V207H29V293L232 754H330ZM232 281V601H230L108 281H232Z" />
<glyph unicode="5" glyph-name="five" horiz-adv-x="411" d="M121 754H361V667H198L174 477Q272 481 321 423T371 265Q371 190 353 132T285 32T159 -9Q109 -9 42 22L68 111Q124 81 156 81Q215 81 242 133T269 249Q269 397 138 397Q113 397 77 388L121 754Z" />
<glyph unicode="6" glyph-name="six" horiz-adv-x="411" d="M196 754H304L157 432L159 430Q196 464 236 464Q272 464 297 448T336 408T357 350T366 288T368 227Q368 176 363 140T343 67T293 11T206 -9Q163 -9 132 7T85 46T58 106T46 174T43 246Q43 296 48 342T63
429T87 509T118 588T154 668T196 754ZM266 226Q266 249 266 260T263 297T255 336T237 362T207 374Q199 374 195 374T179 366T162 345T151 301T145 227Q145 81 207 81Q266 81 266 226Z" />
<glyph unicode="7" glyph-name="seven" horiz-adv-x="411" d="M38 754H375L146 0H38L248 667H38V754Z" />
<glyph unicode="8" glyph-name="eight" horiz-adv-x="411" d="M205 81Q267 81 267 207Q267 235 266 250T260 295T241 340T205 355Q187 355 175 343T157 317T148 277T145 241T145 207Q145 81 205 81ZM132 408V410Q49 437 49 578Q49 665 82 714T199 763Q289 763
325 718T362 578Q362 437 280 409V408Q369 386 369 226Q369 177 363 140T341 67T291 11T206 -9Q43 -9 43 212Q43 249 45 272T54 328T81 380T132 408ZM206 453Q223 453 235 465T252 498T259 534T261 568Q261 673 206 673Q150 673 150 568Q150 544 153 522T169 476T206
453Z" />
<glyph unicode="9" glyph-name="nine" horiz-adv-x="411" d="M211 0H102L252 315L250 317Q219 287 174 287Q44 287 44 506Q44 549 46 578T57 646T82 707T130 746T205 763Q242 763 270 753T315 723T343 680T360 625T366 568T368 507Q368 393 342 304T255 90L211
0ZM205 377Q218 377 228 383T245 399T256 422T262 450T265 478T266 505T266 527Q266 673 205 673Q146 673 146 521Q146 500 146 488T150 452T158 414T176 389T205 377Z" />
<glyph unicode=":" glyph-name="colon" horiz-adv-x="205" d="M128 -8T103 -8T61 10T43 53Q43 77 60 94T103 112T145 95T163 53Q163 28 146 10ZM128 392T103 392T61 410T43 453Q43 477 60 494T103 512T145 495T163 453Q163 428 146 410Z" />
<glyph unicode=";" glyph-name="semicolon" horiz-adv-x="205" d="M77 106L158 81L62 -184L10 -170L77 106ZM128 392T103 392T61 410T43 453Q43 477 60 494T103 512T145 495T163 453Q163 428 146 410Z" />
<glyph unicode="&lt;" glyph-name="less" horiz-adv-x="500" d="M44 222V286L457 518V445L122 254L457 63V-10L44 222Z" />
<glyph unicode="=" glyph-name="equal" horiz-adv-x="500" d="M457 384V314H44V384H457ZM457 194V124H44V194H457Z" />
<glyph unicode="&gt;" glyph-name="greater" horiz-adv-x="500" d="M457 286V222L44 -10V63L379 254L44 445V518L457 286Z" />
<glyph unicode="?" glyph-name="question" horiz-adv-x="341" d="M211 178H123V405L146 404Q172 404 188 413T210 444T218 481T220 527Q222 540 221 565T217 616T202 659T171 678Q158 678 149 672T136 655T130 633T127 608T128 586V568H34V580Q34 615 36 638T46
687T67 728T106 754T167 764Q208 764 236 751T280 719T303 668T314 608T316 538Q316 507 315 488T309 436T293 385T262 352T211 338V178ZM191 -8T166 -8T124 9T106 52T123 94T166 112T208 95T226 52T209 10Z" />
<glyph unicode="@" glyph-name="at" horiz-adv-x="800" d="M334 211Q381 211 421 261T480 371T499 474Q499 504 481 523T431 543Q381 543 340 502T279 407T259 304Q259 264 278 238T334 211ZM545 540L560 588H629L525 279Q512 243 512 227Q512 214 520 206T542
197Q595 197 651 267T707 445Q707 563 622 632T416 702Q277 702 185 607T92 373Q92 238 186 145T418 52Q499 52 571 85T686 181H749Q701 93 610 42T418 -10Q252 -10 139 104T28 381Q28 540 143 652T419 764Q561 764 666 672T771 441Q771 378 741 311T654 194T528
144Q499 144 474 157T440 197Q391 146 319 146Q255 146 216 190T177 299Q177 369 208 439T298 558T430 608Q467 608 498 591T545 540Z" />
<glyph unicode="A" glyph-name="A" horiz-adv-x="414" d="M168 754H247L409 0H308L280 147H130L102 0H4L168 754ZM265 225L245 334L207 608H205L145 225H265Z" />
<glyph unicode="B" glyph-name="B" horiz-adv-x="418" d="M156 342V85Q218 82 241 112T265 209Q265 278 243 310T156 342ZM181 0H61V754H186Q283 754 321 704T360 552Q360 510 354 480T325 422T265 385V383Q325 364 348 320T371 206Q371 99 327 50T181 0ZM262
556Q262 606 242 638T173 669H156V422Q220 419 241 453T262 556Z" />
<glyph unicode="C" glyph-name="C" horiz-adv-x="369" d="M353 742V651Q315 670 289 670Q256 670 231 656T190 613T166 557T154 490T149 428T148 372Q148 84 293 84Q324 84 353 99V11Q320 -10 273 -10Q42 -10 42 365Q42 764 266 764Q315 764 353 742Z" />
<glyph unicode="D" glyph-name="D" horiz-adv-x="466" d="M61 754H173Q205 754 224 753T274 744T322 721T362 678T396 609T416 506T425 364Q425 291 418 235T399 140T365 75T322 34T266 12T203 2T130 0H61V754ZM319 364Q321 393 319 427T316 497T304 564T277 620T232
657T161 669V85Q188 84 210 89T247 103T275 126T295 157T307 193T315 234T318 277T319 321T319 364Z" />
<glyph unicode="E" glyph-name="E" horiz-adv-x="347" d="M61 754H330V667H161V430H312V343H161V87H330V0H61V754Z" />
<glyph unicode="F" glyph-name="F" horiz-adv-x="342" d="M61 754H332V667H161V430H315V343H161V0H61V754Z" />
<glyph unicode="G" glyph-name="G" horiz-adv-x="460" d="M238 398H422V386Q420 341 422 290T417 185T393 88T338 18T242 -10Q198 -10 165 3T111 43T75 102T54 181T45 272T42 375Q42 435 44 478T52 569T72 649T106 709T159 750T233 764Q311 764 354 726T417 610L322
571Q317 594 313 608T299 638T274 662T236 670Q212 670 196 656T170 620T156 557T150 478T148 376Q148 282 155 221T176 131T203 94T236 84Q251 84 261 86T284 98T304 126T316 181T322 270V311H238V398Z" />
<glyph unicode="H" glyph-name="H" horiz-adv-x="473" d="M61 754H161V460H312V754H412V0H312V373H161V0H61V754Z" />
<glyph unicode="I" glyph-name="I" horiz-adv-x="222" d="M161 754V0H61V754H161Z" />
<glyph unicode="J" glyph-name="J" horiz-adv-x="303" d="M242 754V187Q242 141 237 110T218 50T172 5T94 -10Q44 -10 8 10V112Q51 86 74 86Q98 86 112 94T133 121T140 153T142 192V754H242Z" />
<glyph unicode="K" glyph-name="K" horiz-adv-x="424" d="M61 754H163V392L304 754H407L259 389L419 0H304L163 382V0H61V754Z" />
<glyph unicode="L" glyph-name="L" horiz-adv-x="331" d="M61 754H161V87H329V0H61V754Z" />
<glyph unicode="M" glyph-name="M" horiz-adv-x="561" d="M86 754H172L279 210H281L284 241L314 422L379 754H467L537 0H439L421 281L415 421L413 520H411L394 412L316 0H247L150 520H148L119 0H24L86 754Z" />
<glyph unicode="N" glyph-name="N" horiz-adv-x="472" d="M140 579L146 530L161 277V0H61V754H157L333 181L335 183L311 485V754H411V0H318L142 581L140 579Z" />
<glyph unicode="O" glyph-name="O" horiz-adv-x="476" d="M198 764T238 764T310 749T362 712T396 654T418 587T429 512T433 442T434 377T434 312T429 242T418 167T397 101T362 42T310 5T238 -10T166 5T114 42T80 100T58 167T47 242T43 312T42 377T42 442T47 512T58
587T79 653T114 712T166 749ZM292 670T238 670T166 595T148 377T166 160T238 84T310 159T328 377T310 594Z" />
<glyph unicode="P" glyph-name="P" horiz-adv-x="388" d="M161 0H61V754H181Q214 754 235 752T286 739T333 707T364 648T377 552Q377 435 327 383T161 334V0ZM175 669H161V419Q223 415 247 446T271 544Q271 669 175 669Z" />
<glyph unicode="Q" glyph-name="Q" horiz-adv-x="479" d="M457 -12L392 -58L339 21Q301 -10 238 -10Q198 -10 166 5T114 42T80 100T58 167T47 242T43 312T42 377T42 442T47 512T58 587T79 653T114 712T166 749T238 764T310 749T362 712T396 654T418 587T429 512T433
442T434 377Q434 175 389 82L457 -12ZM292 670T238 670T166 595T148 377T166 160T238 84Q264 84 279 100L216 191L277 239L315 185H317Q328 297 328 377Q328 519 310 594Z" />
<glyph unicode="R" glyph-name="R" horiz-adv-x="416" d="M61 0V754H181Q210 754 229 753T277 741T324 711T354 654T368 561Q368 520 360 482T328 409T264 367L403 0H299L163 369H161V0H61ZM161 420Q262 413 262 539Q262 603 246 636T177 669H161V420Z" />
<glyph unicode="S" glyph-name="S" horiz-adv-x="354" d="M294 739L293 638Q249 670 208 670Q168 670 144 642T119 573Q119 527 147 491L223 408Q281 349 305 304T330 187Q330 104 282 47T153 -10Q88 -10 43 26V127Q96 88 142 88Q186 88 208 118T230 193Q230 234
209 270T156 335T93 395T41 471T19 571Q19 655 63 709T188 764Q252 764 294 739Z" />
<glyph unicode="T" glyph-name="T" horiz-adv-x="323" d="M-4 754H327V667H214V0H114V667H-4V754Z" />
<glyph unicode="U" glyph-name="U" horiz-adv-x="467" d="M61 754H161V201Q161 133 179 109T231 84Q278 84 292 109T307 190V754H407V219Q407 189 407 174T403 131T394 87T375 50T344 17T298 -2T234 -10Q188 -10 155 3T104 36T76 90T64 155T61 234V754Z" />
<glyph unicode="V" glyph-name="V" horiz-adv-x="387" d="M7 754H107L193 187H195L200 234L240 488L286 754H381L233 0H153L7 754Z" />
<glyph unicode="W" glyph-name="W" horiz-adv-x="592" d="M2 754H100L171 243L175 187H177L207 440L259 754H337L419 192H421L448 434L494 754H591L459 0H379L322 351L299 541L298 560H296L274 357L214 0H132L2 754Z" />
<glyph unicode="X" glyph-name="X" horiz-adv-x="427" d="M33 754H132L180 620Q212 531 220 482H222L249 586L302 754H404L265 383L404 0H302L256 132Q221 234 215 282H213Q212 251 194 195L132 0H24L167 383L33 754Z" />
<glyph unicode="Y" glyph-name="Y" horiz-adv-x="392" d="M2 754H110L202 405H204L220 502L284 754H391L251 325V0H151V325L2 754Z" />
<glyph unicode="Z" glyph-name="Z" horiz-adv-x="393" d="M42 754H375L148 87H363V0H15L244 667H42V754Z" />
<glyph unicode="[" glyph-name="bracketleft" horiz-adv-x="300" d="M38 754H257V686H124V-35H257V-103H38V754Z" />
<glyph unicode="\" glyph-name="backslash" horiz-adv-x="250" d="M-108 830H-29L358 -103H277L-108 830Z" />
<glyph unicode="]" glyph-name="bracketright" horiz-adv-x="300" d="M43 754H262V-103H43V-35H176V686H43V754Z" />
<glyph unicode="^" glyph-name="asciicircum" horiz-adv-x="500" d="M225 754H274L457 337H390L249 661L110 337H44L225 754Z" />
<glyph unicode="_" glyph-name="underscore" horiz-adv-x="500" d="M0 -75H500V-125H0V-75Z" />
<glyph unicode="`" glyph-name="grave" horiz-adv-x="280" d="M66 703L133 746L215 597L165 568L66 703Z" />
<glyph unicode="a" glyph-name="a" horiz-adv-x="380" d="M187 76Q202 76 213 86T230 113T240 149T244 189T246 226T246 253Q247 263 246 280T245 316T240 356T230 392T213 418T187 429Q163 429 148 408T130 357T125 298T125 253Q123 237 125 208T130 149T148
98T187 76ZM243 0V65H241Q225 28 205 10T148 -8Q120 -8 99 5T65 44T45 94T34 154T30 209T29 259Q29 294 30 319T37 384T56 449T92 493T151 513Q212 513 241 449H243V505H337V0H243Z" />
<glyph unicode="b" glyph-name="b" horiz-adv-x="380" d="M43 0V830H137V449H139Q156 482 173 496Q195 513 229 513T287 494T324 449T342 384T350 319T351 259Q351 230 350 210T346 154T335 94T315 44T282 6T232 -8Q195 -8 175 10T139 65H137V0H43ZM193 76Q217
76 232 98T250 149T255 208T255 253Q257 268 255 297T250 356T232 407T193 429Q178 429 167 419T150 392T140 356T136 317T134 280T134 253Q133 243 134 226T135 190T140 150T150 114T167 87T193 76Z" />
<glyph unicode="c" glyph-name="c" horiz-adv-x="278" d="M254 496V401H252Q237 424 208 425Q125 424 125 257Q125 80 206 80Q228 80 254 99V12Q220 -8 178 -8Q29 -8 29 248Q29 279 30 304T37 362T52 420T78 467T120 501T179 513Q219 513 254 496Z" />
<glyph unicode="d" glyph-name="d" horiz-adv-x="380" d="M243 0V65H241Q225 28 205 10T148 -8Q120 -8 99 5T65 44T45 94T34 154T30 209T29 259Q29 294 30 319T37 384T56 449T92 493T151 513T205 497T241 449H243V830H337V0H243ZM187 76Q202 76 213 86T230 113T240
149T244 189T246 226T246 253Q247 263 246 280T245 316T240 356T230 392T213 418T187 429Q163 429 148 408T130 357T125 298T125 253Q123 237 125 208T130 149T148 98T187 76Z" />
<glyph unicode="e" glyph-name="e" horiz-adv-x="361" d="M125 301H237Q237 429 180 429Q166 429 156 422T140 405T131 380T127 352T125 324T125 301ZM333 234H125Q125 76 184 76T243 170H330Q330 93 294 43T183 -8Q143 -8 113 9T68 51T43 113T32 180T29 249Q29
280 30 305T37 362T52 420T79 467T121 501T180 513Q333 513 333 249V234Z" />
<glyph unicode="f" glyph-name="f" horiz-adv-x="249" d="M21 505H68V668Q68 707 71 732T84 784T119 824T182 838Q212 838 245 824V726Q223 738 206 738Q192 738 183 733T170 720T164 701T162 679T162 657V505H240V431H162V0H68V431H21V505Z" />
<glyph unicode="g" glyph-name="g" horiz-adv-x="382" d="M245 250Q245 429 184 429Q166 429 153 415T135 379T127 332T125 287T125 255Q126 243 125 222T127 176T136 128T154 91T187 76Q218 76 232 112T245 186T245 250ZM339 505V-4Q339 -70 330 -112T299 -177T252
-207T185 -215Q116 -215 76 -177T36 -69V-55H127Q125 -86 139 -108T187 -131Q205 -131 217 -125T234 -107T242 -82T244 -53T244 -24V60H242Q232 28 209 10T152 -8Q123 -8 101 4T67 40T46 87T34 145T30 199T29 249Q29 276 29 290T31 336T38 387T51 434T72 476T105
502T150 513Q185 513 205 496T242 445L244 447V505H339Z" />
<glyph unicode="h" glyph-name="h" horiz-adv-x="388" d="M44 830H138V447H140Q157 479 180 495Q206 513 242 513Q271 513 291 503T322 478T337 438T344 395T345 347V0H251V349Q251 429 195 429Q177 429 165 422T148 402T140 374T138 343T138 315V0H44V830Z" />
<glyph unicode="i" glyph-name="i" horiz-adv-x="180" d="M137 505V0H43V505H137ZM91 595Q65 595 47 613T28 658T46 702T91 720Q116 720 134 702T153 658Q153 632 135 614T91 595Z" />
<glyph unicode="j" glyph-name="j" horiz-adv-x="180" d="M137 505V-207H43V505H137ZM91 595Q65 595 47 613T28 658T46 702T91 720Q116 719 134 701T153 657Q153 631 135 613T91 595Z" />
<glyph unicode="k" glyph-name="k" horiz-adv-x="395" d="M44 830H138V281H140L257 505H362L233 281L379 0H270L140 268H138V0H44V830Z" />
<glyph unicode="l" glyph-name="l" horiz-adv-x="180" d="M137 830V0H43V830H137Z" />
<glyph unicode="m" glyph-name="m" horiz-adv-x="590" d="M138 505V443H140Q172 513 239 513Q273 513 298 495T330 443H332Q364 513 436 513Q547 513 547 391V0H453V354Q453 389 443 409T402 429Q378 429 364 419T347 392T342 357T342 321V0H248V343Q248 362 248
368T244 390T236 411T221 423T194 429Q173 429 161 418T144 391T138 356T137 321V0H43V505H138Z" />
<glyph unicode="n" glyph-name="n" horiz-adv-x="388" d="M138 505V447H140Q157 479 180 495Q206 513 242 513Q271 513 291 503T321 478T337 438T344 395T345 347V0H251V349Q251 429 195 429Q177 429 165 422T148 402T140 374T138 343T138 315V0H44V505H138Z" />
<glyph unicode="o" glyph-name="o" horiz-adv-x="375" d="M229 -8T188 -8T117 9T70 52T44 114T32 182T29 251Q29 290 31 321T43 390T69 453T116 495T188 513T259 496T306 453T332 390T344 321T347 251Q347 213 345 183T333 115T307 52T260 10ZM163 78T188 78T228
100T246 151T251 209T251 251Q253 266 252 295T247 354T228 405T188 427T148 405T130 354T125 296T125 251Q123 238 124 209T129 151T148 100Z" />
<glyph unicode="p" glyph-name="p" horiz-adv-x="380" d="M193 76Q232 76 243 122T255 252Q257 267 255 297T250 356T232 407T193 429Q178 429 167 419T150 392T140 356T136 316T134 279T134 252Q133 242 134 225T135 189T140 149T150 113T167 87T193 76ZM137
505V440H139Q154 476 175 494T232 513Q256 513 275 502T307 475T328 434T341 387T347 335T350 288T351 247Q351 212 350 187T343 122T324 57T288 12T229 -8Q194 -8 174 8T139 57H137V-207H43V505H137Z" />
<glyph unicode="q" glyph-name="q" horiz-adv-x="380" d="M187 76Q202 76 213 86T230 113T240 149T244 188T246 225T246 252Q247 262 246 279T245 316T240 356T230 392T213 418T187 429Q163 429 148 408T130 357T125 298T125 252Q123 237 125 208T130 149T148
98T187 76ZM337 505V-207H243V57H241Q226 24 207 9Q185 -8 151 -8T93 11T56 56T38 122T30 187T29 247Q29 271 29 288T32 335T39 386T52 433T73 475T104 502T148 513Q185 513 205 495T241 440H243V505H337Z" />
<glyph unicode="r" glyph-name="r" horiz-adv-x="269" d="M138 505V443H140Q175 513 247 513V420L231 421Q181 421 160 395T139 318V0H44V505H138Z" />
<glyph unicode="s" glyph-name="s" horiz-adv-x="276" d="M234 491V402Q204 429 164 429Q137 429 119 415T100 375Q101 352 117 333T157 297T203 263T242 213T258 142Q258 75 219 34T113 -8Q71 -8 31 16V108Q71 76 109 76Q139 76 155 93T172 140Q172 164 156 184T116
221T70 257T31 306T14 375Q14 435 51 474T149 513Q197 513 234 491Z" />
<glyph unicode="t" glyph-name="t" horiz-adv-x="221" d="M63 648H157V505H207V431H157V0H63V431H12V505H63V648Z" />
<glyph unicode="u" glyph-name="u" horiz-adv-x="389" d="M44 505H138V189Q139 175 138 160T140 131T148 104T165 85T196 78Q218 78 231 88T247 114T252 148T252 184V505H346V164Q346 80 314 36T200 -8Q105 -8 75 39T44 184V505Z" />
<glyph unicode="v" glyph-name="v" horiz-adv-x="358" d="M13 505H113L181 123H183L186 153L223 357L254 505H345L212 0H150L13 505Z" />
<glyph unicode="w" glyph-name="w" horiz-adv-x="487" d="M-3 505H96L150 153V143H152L174 300L213 505H280L337 153V143H339L365 331L398 505H490L371 0H307L256 259L246 371H244L222 190L185 0H120L-3 505Z" />
<glyph unicode="x" glyph-name="x" horiz-adv-x="395" d="M14 505H124L195 332L219 407L260 505H358L244 267L382 0H271L221 109Q192 178 188 205H186Q183 169 152 94L112 0H14L140 267L14 505Z" />
<glyph unicode="y" glyph-name="y" horiz-adv-x="373" d="M4 505H109L183 153H185L270 505H365L159 -207H60L138 41L4 505Z" />
<glyph unicode="z" glyph-name="z" horiz-adv-x="335" d="M27 505H321L152 84H312V0H14L189 421H27V505Z" />
<glyph unicode="{" glyph-name="braceleft" horiz-adv-x="258" d="M2 301V353Q90 363 92 434V622Q92 695 126 724T224 754H255V697Q211 693 193 674T176 610V451Q176 398 157 369T82 328V326Q137 315 156 286T176 203V44Q175 -1 193 -20T255 -43V-100H224Q160
-100 126 -71T92 32V220Q90 291 2 301Z" />
<glyph unicode="|" glyph-name="bar" horiz-adv-x="250" d="M90 786H160V-214H90V786Z" />
<glyph unicode="}" glyph-name="braceright" horiz-adv-x="258" d="M3 -100V-43Q47 -39 65 -20T82 44V203Q82 256 101 285T176 326V328Q121 339 102 368T82 451V610Q83 655 65 674T3 697V754H34Q98 754 132 725T166 622V434Q168 363 256 353V301Q168 291 166 220V32Q166
-41 132 -70T34 -100H3Z" />
<glyph unicode="~" glyph-name="asciitilde" horiz-adv-x="500" d="M161 331Q195 331 257 296Q325 261 342 261Q386 261 423 344L457 297Q408 186 341 186Q318 186 230 230Q182 255 161 255Q141 255 124 239T99 208T78 165L44 213Q68 266 95 298T161 331Z" />
</font>
</defs>
</svg>
