<svg enable-background="new 0 0 171.691 46.052" viewBox="0 0 171.691 46.052" xmlns="http://www.w3.org/2000/svg"><g fill="#332f2f"><path d="m29.085 38.749c.04.005.076.015.107.03.032.015.063.037.093.065s.063.066.1.112l3.795 4.835c-.014-.117-.022-.23-.028-.342-.005-.112-.007-.216-.007-.313v-4.395h1.185v7.23h-.695c-.106 0-.195-.017-.265-.05-.07-.034-.139-.093-.205-.18l-3.78-4.815c.01.106.018.212.023.317s.007.201.007.288v4.44h-1.185v-7.23h.705c.06.001.11.003.15.008z"/><path d="m49.225 42.357c0 .53-.088 1.021-.265 1.473s-.425.843-.745 1.172c-.32.33-.705.588-1.155.773s-.948.277-1.495.277c-.546 0-1.046-.093-1.498-.277-.452-.185-.838-.443-1.16-.773s-.571-.721-.748-1.172-.265-.942-.265-1.473c0-.53.088-1.021.265-1.472s.426-.843.748-1.172c.321-.33.708-.588 1.16-.773s.951-.277 1.498-.277 1.045.093 1.495.28.835.444 1.155.772.568.718.745 1.17.265.942.265 1.472zm-1.38 0c0-.396-.053-.752-.158-1.067s-.256-.583-.453-.802c-.196-.22-.436-.388-.717-.505-.282-.116-.599-.175-.953-.175-.353 0-.671.059-.955.175-.283.117-.524.285-.722.505-.199.22-.351.487-.458.802s-.16.671-.16 1.067c0 .397.053.753.16 1.068.106.315.259.582.458.8.198.218.439.386.722.502.284.117.602.175.955.175.354 0 .671-.059.953-.175s.521-.284.717-.502c.197-.218.348-.485.453-.8s.158-.671.158-1.068z"/><path d="m71.635 42.357c0 .53-.088 1.017-.265 1.46-.176.443-.425.825-.745 1.145s-.705.568-1.155.745-.948.265-1.495.265h-2.76v-7.23h2.76c.546 0 1.045.089 1.495.268.45.178.835.427 1.155.745s.568.699.745 1.142c.176.443.265.93.265 1.46zm-1.375 0c0-.396-.053-.752-.16-1.067s-.259-.582-.455-.8c-.197-.218-.436-.386-.718-.502s-.599-.175-.952-.175h-1.405v5.09h1.405c.353 0 .67-.059.952-.175s.521-.284.718-.502c.196-.218.348-.485.455-.8.107-.316.16-.672.16-1.069z"/><path d="m83.75 38.742v1.07h-3.205v2.005h2.525v1.035h-2.525v2.045h3.205v1.075h-4.56v-7.23z"/><path d="m92.805 43.427v2.545h-1.346v-7.23h2.355c.483 0 .902.057 1.255.17.354.113.646.272.875.475.23.203.4.447.511.73.109.283.164.593.164.93 0 .35-.059.671-.175.962s-.292.542-.524.752c-.234.21-.525.374-.875.49-.351.117-.76.175-1.23.175zm0-1.05h1.01c.246 0 .462-.031.645-.092.184-.062.336-.15.455-.265.121-.115.211-.255.271-.42s.09-.349.09-.552c0-.193-.03-.369-.09-.525s-.149-.29-.271-.4c-.119-.11-.271-.194-.455-.252-.183-.058-.398-.087-.645-.087h-1.01z"/><path d="m111.1 42.357c0 .53-.089 1.021-.265 1.473-.177.452-.426.843-.745 1.172-.32.33-.705.588-1.155.773s-.948.277-1.495.277-1.046-.093-1.498-.277c-.451-.185-.838-.443-1.159-.773s-.571-.721-.747-1.172c-.178-.452-.266-.942-.266-1.473 0-.53.088-1.021.266-1.472.176-.452.426-.843.747-1.172.321-.33.708-.588 1.159-.773.452-.185.951-.277 1.498-.277s1.045.093 1.495.28.835.444 1.155.772c.319.328.568.718.745 1.17.176.451.265.942.265 1.472zm-1.38 0c0-.396-.053-.752-.157-1.067-.105-.315-.256-.583-.453-.802-.196-.22-.436-.388-.717-.505-.282-.116-.6-.175-.953-.175s-.672.059-.955.175c-.283.117-.523.285-.723.505-.198.22-.351.487-.457.802-.107.315-.16.671-.16 1.067 0 .397.053.753.16 1.068.106.315.259.582.457.8.199.218.439.386.723.502s.602.175.955.175.671-.059.953-.175c.281-.117.521-.284.717-.502.197-.218.348-.485.453-.8.104-.315.157-.671.157-1.068z"/><path d="m122.535 40.057c-.037.073-.08.125-.128.155-.049.03-.105.045-.173.045-.066 0-.142-.026-.225-.078s-.182-.109-.295-.172-.246-.121-.397-.173c-.152-.051-.331-.077-.538-.077-.187 0-.349.022-.487.067s-.255.107-.35.188-.166.176-.213.288-.069.234-.069.367c0 .17.047.312.142.425.096.113.222.21.378.29s.335.151.535.215.404.131.612.203.412.155.612.25.379.215.535.36.282.322.378.533c.095.21.143.465.143.765 0 .327-.057.633-.168.917-.111.285-.275.534-.49.745-.215.212-.478.378-.787.5-.311.122-.665.183-1.065.183-.229 0-.456-.022-.68-.067s-.438-.109-.643-.193c-.205-.083-.396-.183-.575-.3-.178-.117-.337-.247-.478-.39l.391-.645c.036-.046.08-.085.132-.117s.109-.048.173-.048c.083 0 .173.034.27.103s.211.145.343.228.287.159.465.228c.179.068.393.103.643.103.384 0 .681-.091.891-.272s.314-.442.314-.783c0-.19-.047-.345-.143-.465-.095-.12-.221-.221-.377-.302-.157-.082-.335-.151-.535-.208s-.403-.119-.61-.185c-.206-.067-.41-.147-.609-.24-.2-.093-.379-.215-.535-.365-.157-.15-.283-.338-.378-.563s-.143-.502-.143-.833c0-.263.053-.52.158-.77.104-.25.258-.472.46-.665.201-.193.449-.348.742-.465s.628-.175 1.005-.175c.427 0 .82.067 1.18.2s.667.32.92.56z"/><path d="m132.04 45.972h-1.351v-7.23h1.351z"/><path d="m145.26 38.742v1.105h-2.175v6.125h-1.346v-6.125h-2.185v-1.105z"/><path d="m8.687 40.875c-.018-.056-.067-.097-.125-.106l-2.816-.41-1.259-2.551c-.026-.053-.08-.087-.139-.087s-.113.033-.14.087l-1.26 2.552-2.815.409c-.059.008-.107.049-.125.106-.018.056-.003.119.039.16l2.037 1.986-.481 2.805c-.01.058.014.117.062.152s.112.039.164.011l2.518-1.324 2.518 1.324c.023.011.048.018.073.018.032 0 .065-.01.091-.03.048-.035.072-.094.062-.152l-.481-2.804 2.037-1.986c.043-.042.059-.104.04-.16z"/><path d="m171.683 40.875c-.018-.056-.067-.097-.125-.106l-2.816-.41-1.259-2.551c-.026-.053-.08-.087-.139-.087s-.113.033-.14.087l-1.259 2.552-2.815.409c-.059.008-.107.049-.125.106-.018.056-.003.119.039.16l2.037 1.986-.481 2.805c-.01.058.014.117.062.152s.112.039.164.011l2.518-1.324 2.518 1.324c.022.012.047.018.072.018.032 0 .065-.01.091-.03.048-.035.072-.094.062-.152l-.481-2.804 2.037-1.986c.044-.042.059-.104.04-.16z"/><path d="m12.025 3.146-.111 13.155.111 11.17c.642.087 1.173.13 1.594.13 1.21 0 2.452-.216 3.724-.649s2.396-1.021 3.373-1.763c.63-.482 1.282-1.125 1.955-1.93.673-.804 1.214-1.589 1.622-2.356.234-.445.488-.668.76-.668.408 0 .611.173.611.52 0 .371-.306.999-.918 1.883-.612.885-1.284 1.679-2.013 2.384-1.583 1.521-3.445 2.579-5.585 3.173-1.287.358-2.523.538-3.711.538-1.732 0-3.47-.371-5.214-1.113-2.796-1.175-4.923-3.037-6.383-5.585-1.212-2.115-1.818-4.36-1.818-6.735 0-2.424.631-4.713 1.893-6.865 1.348-2.288 3.253-4.039 5.715-5.251 1.793-.866 3.729-1.299 5.808-1.299 3.563 0 6.643 1.206 9.24 3.618 1.237 1.15 1.855 1.979 1.855 2.486 0 .136-.062.26-.185.371s-.26.167-.408.167c-.247 0-.544-.241-.889-.724-1.063-1.472-2.464-2.638-4.206-3.498-1.742-.859-3.582-1.29-5.521-1.29-.459.001-.891.044-1.299.131z"/><path d="m40.331 1.123 14.834 26.849h-12.867l-1.792-3.396h-6.213l-5.473-.019-.925-.019-1.221 2.268c-.358.682-.608 1.104-.751 1.27-.144.165-.321.248-.533.248-.423 0-.635-.186-.635-.557 0-.161.121-.46.362-.9.241-.439 1.086-1.883 2.535-4.333l11.23-18.906zm-5.773 12.19-3.241 5.454-2.593 4.492 5.534.074 5.552-.074z"/><path d="m90.883 2.645v1.299l-.111 10.168.111 13.86h-11.356l.111-15.159-.13-9.259.019-.909h11.356z"/><path d="m117.954 14.978v-3.102l-.037-4.922-.019-2.248-.019-1.412c0-.668.229-1.003.687-1.003.271 0 .461.078.566.232.104.155.157.449.157.881v.26c-.013.26-.019.687-.019 1.28l-.074 6.253-.056 5.733.048 6.03.063 6.049c-2.549-1.596-6.278-3.802-11.188-6.618-4.911-2.815-8.888-5.027-11.931-6.636l.019.91.186 9.579.019 1.281c0 .532-.248.798-.742.798-.508 0-.761-.328-.761-.983l.019-1.299.019-2.097.074-9.519-.149-12.819c5.014 3.108 12.727 7.565 23.138 13.372z"/><path d="m135.729 1.884c1.954 0 3.841.415 5.659 1.243 2.672 1.225 4.713 3.111 6.123 5.659 1.125 2.041 1.688 4.262 1.688 6.661 0 1.93-.427 3.798-1.28 5.604-1.274 2.697-3.26 4.744-5.956 6.142-1.979 1.026-4.058 1.54-6.234 1.54-2.301 0-4.479-.582-6.531-1.744-2.734-1.534-4.683-3.686-5.845-6.457-.718-1.694-1.076-3.445-1.076-5.251 0-2.264.563-4.422 1.688-6.476 1.385-2.523 3.407-4.41 6.067-5.659 1.77-.829 3.668-1.249 5.697-1.262zm-1.465 1.243-.111 12.079.093 10.038.019 2.264c.42.074.822.111 1.206.111 2.733 0 5.177-.754 7.329-2.264 1.967-1.385 3.389-3.167 4.268-5.344.618-1.521.928-3.099.928-4.731 0-2.152-.52-4.156-1.559-6.012-1.274-2.276-3.068-3.952-5.381-5.028-1.732-.816-3.557-1.225-5.474-1.225-.446.001-.886.038-1.318.112z"/><path d="m151.983 23.667c.223 0 .482.167.779.501.928 1.015 2.063 1.828 3.405 2.44s2.668.918 3.979.918c1.447 0 2.171-.439 2.171-1.318 0-.557-.253-1.185-.76-1.884s-1.72-2.081-3.637-4.147c-2.413-2.609-4.021-4.545-4.825-5.807-1.064-1.67-1.596-3.259-1.596-4.769 0-2.276 1.014-4.138 3.043-5.585 1.991-1.422 4.446-2.134 7.366-2.134 2.041 0 3.915.415 5.622 1.243.643.322 1.196.693 1.661 1.113.463.421.695.773.695 1.058 0 .136-.064.263-.195.38-.129.118-.263.176-.398.176-.211 0-.52-.191-.928-.575-.668-.631-1.547-1.153-2.635-1.568-1.089-.414-2.134-.622-3.136-.622-.619 0-1.122.133-1.513.399-.389.266-.584.609-.584 1.03 0 .507.24 1.126.723 1.856.481.73 1.298 1.701 2.448 2.913 3.638 3.871 5.865 6.48 6.682 7.829.854 1.423 1.28 2.796 1.28 4.119 0 1.126-.304 2.189-.909 3.191-.606 1.002-1.447 1.825-2.523 2.468-2.054 1.225-4.559 1.837-7.515 1.837-2.722 0-5.115-.705-7.181-2.115-1.447-.989-2.171-1.763-2.171-2.319 0-.161.064-.306.195-.436.132-.127.284-.192.457-.192z"/><path d="m74.887 16.365c-.731-1.207-2.603-3.434-5.597-6.665l2.882-5.752c.263.183.512.373.73.579.408.384.717.575.928.575.136 0 .269-.059.399-.176.129-.117.194-.244.194-.38 0-.284-.231-.637-.696-1.058-.284-.258-.615-.491-.968-.712l.846-1.689c.186-.37.036-.821-.334-1.006-.371-.187-.821-.036-1.006.334l-.847 1.69c-1.532-.636-3.184-.974-4.973-.974-2.92 0-5.375.711-7.366 2.134-2.029 1.447-3.043 3.309-3.043 5.585 0 1.509.531 3.099 1.596 4.769.805 1.262 2.412 3.197 4.825 5.807.064.069.121.131.183.198l-2.88 5.748c-.939-.537-1.761-1.189-2.463-1.956-.297-.334-.557-.501-.779-.501-.174 0-.324.065-.455.195-.129.13-.194.275-.194.436 0 .557.724 1.33 2.171 2.319.367.25.747.47 1.135.676l-.743 1.483c-.186.37-.036.821.334 1.006.108.054.223.08.335.08.275 0 .54-.151.671-.414l.767-1.53c1.435.542 2.995.814 4.682.814 2.956 0 5.461-.612 7.515-1.837 1.076-.643 1.917-1.466 2.523-2.468.605-1.002.909-2.065.909-3.191-.001-1.323-.428-2.696-1.281-4.119zm-9.13-10.742c-.482-.73-.723-1.349-.723-1.856 0-.42.194-.764.585-1.03.389-.266.893-.399 1.512-.399 1.002 0 2.047.208 3.136.622.208.079.402.167.595.254l-2.664 5.316c-1.146-1.209-1.961-2.178-2.441-2.907zm-1.075 21.151c-1.177 0-2.367-.261-3.57-.754l2.612-5.214c1.193 1.314 1.984 2.237 2.368 2.766.507.699.76 1.327.76 1.884 0 .878-.723 1.318-2.17 1.318z"/></g></svg>